<?xml version="1.0" standalone="no"?>
<!DOCTYPE svg PUBLIC "-//W3C//DTD SVG 20010904//EN"
 "http://www.w3.org/TR/2001/REC-SVG-20010904/DTD/svg10.dtd">
<svg version="1.0" xmlns="http://www.w3.org/2000/svg"
 width="301.000000pt" height="75.000000pt" viewBox="0 0 301.000000 75.000000"
 preserveAspectRatio="xMidYMid meet">

<g transform="translate(0.000000,75.000000) scale(0.100000,-0.100000)"
fill="#000000" stroke="none">
<path d="M401 599 c-1 -117 -1 -117 24 -121 15 -3 30 1 39 11 15 17 38 111 27
111 -3 0 -17 -17 -31 -38 l-25 -37 -9 53 c-5 29 -7 55 -4 57 8 8 95 -22 125
-43 20 -14 33 -18 44 -11 30 20 -92 89 -157 89 -15 0 -24 7 -27 23 -2 12 -5
-30 -6 -94z"/>
<path d="M308 660 c-96 -29 -180 -125 -203 -231 -4 -19 -15 -40 -24 -47 -14
-12 -13 -13 9 -8 14 3 64 6 112 6 79 0 87 2 93 21 10 31 -21 55 -77 64 -27 3
-48 4 -48 1 0 -2 16 -14 36 -26 41 -26 36 -35 -23 -43 -36 -4 -43 -2 -43 12 0
27 21 83 42 113 10 15 15 34 12 45 -4 10 24 -13 63 -50 67 -65 70 -67 86 -49
23 25 21 54 -5 96 -24 37 -43 47 -34 19 2 -10 8 -33 11 -51 6 -31 5 -33 -12
-23 -10 5 -31 21 -48 35 l-30 26 24 20 c13 11 48 27 77 36 33 9 54 21 54 30 0
15 -29 17 -72 4z"/>
<path d="M824 624 c-40 -20 -64 -63 -64 -117 0 -78 63 -125 142 -108 57 13 78
29 78 59 0 16 5 33 10 38 7 7 -5 11 -40 12 -50 1 -68 -11 -30 -21 42 -11 12
-77 -35 -77 -56 0 -85 39 -85 113 0 62 29 97 79 97 38 0 81 -31 81 -58 0 -7 5
-12 10 -12 6 0 10 15 10 33 0 31 -2 33 -53 45 -65 15 -65 15 -103 -4z"/>
<path d="M2494 624 c-62 -30 -86 -133 -44 -187 42 -53 132 -53 180 -2 28 30
18 33 -17 5 -63 -49 -143 -2 -143 84 0 58 30 96 73 96 35 -1 54 -12 80 -50
l17 -24 0 35 c0 33 -2 36 -45 47 -57 15 -63 15 -101 -4z"/>
<path d="M1023 619 c14 -8 17 -25 17 -102 0 -59 -4 -97 -12 -105 -9 -9 -1 -12
38 -12 38 1 45 3 32 11 -13 7 -18 23 -18 54 0 38 3 45 19 45 13 0 29 -17 48
-52 29 -54 62 -73 86 -49 8 8 6 11 -5 11 -9 0 -28 21 -42 47 l-26 46 20 22
c25 27 25 50 0 75 -17 17 -33 20 -97 20 -58 -1 -73 -3 -60 -11z m121 -21 c23
-32 20 -57 -8 -70 -38 -17 -56 -4 -56 40 0 21 3 42 7 45 13 14 42 6 57 -15z"/>
<path d="M1263 619 c14 -8 17 -25 17 -109 0 -69 -4 -100 -12 -103 -7 -3 24 -6
69 -6 72 -1 84 2 93 18 16 31 12 32 -25 10 -19 -11 -44 -19 -57 -17 -20 3 -23
10 -26 51 -3 47 -3 47 28 47 18 0 33 -6 36 -15 11 -29 19 -15 16 27 -3 32 -7
37 -14 25 -5 -10 -21 -17 -39 -17 -29 0 -30 1 -27 42 2 32 8 44 21 46 30 6 67
-7 67 -23 0 -8 5 -15 11 -15 6 0 8 7 5 16 -3 9 -6 20 -6 25 0 5 -39 9 -87 9
-65 -1 -83 -3 -70 -11z"/>
<path d="M1478 614 c20 -14 22 -24 22 -99 0 -63 -4 -88 -16 -99 -14 -15 -8
-16 63 -16 79 0 103 9 103 39 0 11 -4 11 -19 -3 -11 -10 -35 -19 -53 -19 -33
-2 -33 -1 -36 46 -3 46 -3 47 27 47 21 0 31 -5 31 -15 0 -8 4 -15 10 -15 5 0
9 18 8 40 -1 41 -11 52 -22 25 -3 -8 -17 -15 -31 -15 -23 0 -25 4 -25 45 0 44
0 45 34 45 23 0 38 -7 49 -22 l16 -23 0 28 1 27 -92 0 c-87 0 -91 -1 -70 -16z"/>
<path d="M1690 610 c27 -27 29 -163 3 -192 -15 -17 -14 -18 28 -18 42 0 43 0
21 16 -20 13 -22 24 -22 92 l1 77 87 -93 c48 -51 90 -92 95 -92 4 0 7 49 7
109 0 78 4 111 13 114 6 3 -8 5 -33 6 -37 0 -41 -2 -22 -9 20 -9 22 -16 22
-82 l-1 -73 -77 83 c-66 71 -82 82 -109 82 l-33 0 20 -20z"/>
<path d="M1979 597 c9 -17 30 -71 46 -120 16 -48 32 -87 35 -87 3 0 18 30 34
65 30 68 39 73 51 28 3 -15 13 -43 21 -62 l16 -36 39 105 c21 58 43 113 49
123 9 15 6 17 -27 17 -31 -1 -35 -3 -20 -11 22 -13 21 -31 -7 -104 l-23 -59
-26 79 c-21 61 -24 81 -14 87 7 4 -7 8 -33 8 -25 0 -40 -4 -34 -8 6 -4 17 -24
23 -44 11 -32 9 -42 -9 -78 -12 -23 -23 -40 -26 -38 -2 3 -15 38 -29 78 -19
57 -22 76 -13 82 8 4 -4 8 -28 8 l-42 0 17 -33z"/>
<path d="M2318 620 c21 -9 22 -15 22 -103 0 -59 -4 -97 -12 -105 -9 -9 -1 -12
38 -12 38 1 45 3 32 11 -15 8 -18 25 -18 109 0 69 4 100 13 103 6 3 -13 5 -43
6 -43 0 -50 -2 -32 -9z"/>
<path d="M2678 620 c21 -9 22 -15 22 -104 0 -80 -3 -97 -17 -105 -14 -8 -3
-10 42 -10 46 0 55 2 38 9 -19 8 -23 17 -23 55 l0 45 60 0 60 0 0 -49 c0 -30
-5 -51 -12 -54 -7 -3 10 -6 37 -6 39 0 46 2 33 10 -15 8 -18 25 -18 102 0 59
4 97 12 105 9 9 1 12 -37 12 -39 -1 -46 -3 -32 -11 11 -7 17 -22 17 -49 l0
-40 -60 0 -60 0 0 38 c0 21 5 43 12 50 9 9 0 12 -42 11 -43 0 -50 -2 -32 -9z"/>
<path d="M547 522 c-72 -72 -78 -95 -30 -107 18 -4 38 2 72 24 48 32 43 37
-21 22 -21 -5 -38 -6 -38 -1 0 17 62 90 71 84 16 -10 59 -105 59 -131 0 -16 6
-23 20 -23 11 0 20 4 20 8 0 26 -34 113 -58 149 l-28 42 -67 -67z"/>
<path d="M440 425 c-11 -13 -10 -14 4 -9 9 3 16 10 16 15 0 13 -6 11 -20 -6z"/>
<path d="M450 400 c-9 -6 -10 -10 -3 -10 6 0 15 5 18 10 8 12 4 12 -15 0z"/>
<path d="M608 373 c-101 -4 -116 -12 -103 -54 7 -20 18 -24 85 -34 l45 -6 -44
30 c-49 33 -51 31 37 45 28 5 32 3 32 -18 0 -12 -14 -50 -31 -84 -17 -34 -27
-67 -23 -74 4 -7 -24 17 -62 54 -59 57 -71 65 -86 55 -26 -20 -25 -53 2 -97
31 -50 40 -51 29 -2 -14 63 -12 65 36 31 25 -18 45 -36 45 -40 0 -12 -61 -46
-107 -59 -23 -7 -45 -20 -48 -28 -4 -12 2 -14 40 -9 111 16 202 103 235 227 7
24 19 50 28 57 14 10 14 12 2 11 -8 -1 -58 -4 -112 -5z"/>
<path d="M773 359 c14 -8 17 -25 17 -99 0 -74 -3 -91 -17 -99 -14 -8 -10 -10
22 -10 32 0 36 2 23 10 -15 8 -18 24 -18 86 0 43 4 73 8 68 5 -6 24 -45 43
-88 l34 -78 45 93 45 93 3 -65 c4 -79 -3 -107 -26 -113 -9 -3 8 -5 38 -5 30 0
48 2 40 5 -25 10 -30 25 -30 103 0 78 5 93 30 103 8 3 -1 6 -20 6 -34 1 -36
-1 -75 -86 l-39 -87 -40 87 c-37 82 -41 87 -70 87 -26 -1 -28 -2 -13 -11z"/>
<path d="M1115 361 c-63 -26 -83 -125 -36 -175 44 -47 131 -43 164 8 61 95
-25 209 -128 167z m91 -22 c14 -16 19 -36 19 -79 0 -67 -21 -100 -66 -100 -41
0 -69 41 -69 100 0 85 68 132 116 79z"/>
<path d="M1293 359 c14 -8 17 -25 17 -99 0 -74 -3 -91 -17 -100 -14 -8 2 -10
65 -8 69 3 86 7 98 23 20 27 17 63 -6 77 -18 11 -18 14 -3 30 21 24 9 66 -23
78 -36 14 -155 13 -131 -1z m122 -19 c15 -17 16 -24 7 -45 -9 -20 -19 -25 -47
-25 -35 0 -35 0 -35 45 0 43 1 45 28 45 16 0 37 -9 47 -20z m16 -106 c15 -40
-11 -74 -56 -74 l-35 0 0 50 0 50 40 0 c35 0 42 -4 51 -26z"/>
<path d="M1513 359 c25 -15 25 -183 0 -198 -14 -8 -7 -10 32 -10 39 0 46 2 33
10 -15 8 -18 25 -18 99 0 74 3 91 18 99 13 8 6 10 -33 10 -39 0 -46 -2 -32
-10z"/>
<path d="M1623 359 c25 -15 25 -183 0 -198 -13 -8 5 -10 70 -11 48 0 87 4 87
9 0 5 3 18 6 28 5 13 2 12 -10 -4 -13 -18 -27 -23 -62 -23 l-44 0 0 95 c0 90
1 96 23 105 17 7 10 9 -33 9 -42 0 -51 -2 -37 -10z"/>
<path d="M1823 359 c25 -15 25 -183 0 -198 -13 -8 5 -10 70 -11 48 0 87 4 87
9 0 5 3 18 6 28 5 13 2 12 -10 -4 -13 -18 -27 -23 -62 -23 l-44 0 0 51 0 51
40 -4 c24 -2 40 1 40 7 0 6 -16 9 -40 7 l-40 -4 0 46 0 46 43 0 c36 0 46 -4
55 -22 10 -23 11 -23 11 5 l1 27 -87 0 c-65 -1 -83 -3 -70 -11z"/>
<path d="M2120 350 c-11 -11 -20 -29 -20 -40 0 -19 11 -29 80 -73 37 -24 45
-53 19 -70 -24 -15 -67 0 -83 31 l-15 27 -1 -35 c0 -35 0 -35 47 -37 61 -3 93
17 93 57 0 25 -9 35 -55 65 -61 39 -73 70 -30 81 28 7 52 -8 65 -41 7 -16 9
-13 9 15 1 35 0 35 -44 38 -34 2 -50 -3 -65 -18z"/>
<path d="M2283 359 c25 -15 25 -183 0 -198 -14 -8 -6 -10 32 -10 28 1 42 3 33
6 -14 3 -18 15 -18 54 l0 49 50 0 50 0 0 -45 c0 -31 -5 -47 -17 -54 -14 -8 -7
-10 32 -10 39 0 46 2 33 10 -15 8 -18 25 -18 99 0 74 3 91 18 99 13 8 6 10
-33 10 -39 0 -46 -2 -32 -10 11 -7 17 -22 17 -49 l0 -40 -50 0 -50 0 0 44 c0
34 4 46 18 49 9 3 -5 5 -33 6 -38 0 -46 -2 -32 -10z"/>
<path d="M2565 361 c-63 -26 -83 -125 -36 -175 44 -47 131 -43 164 8 61 95
-25 209 -128 167z m91 -22 c14 -16 19 -36 19 -79 0 -67 -21 -100 -66 -100 -41
0 -69 41 -69 100 0 85 68 132 116 79z"/>
<path d="M2753 359 c14 -8 17 -25 17 -99 0 -74 -3 -91 -17 -99 -14 -8 -6 -10
32 -10 28 1 42 3 33 6 -14 3 -18 15 -18 49 0 41 2 44 28 44 15 0 38 7 50 16
32 22 27 74 -8 91 -31 16 -144 18 -117 2z m101 -15 c30 -30 11 -84 -29 -84
-23 0 -25 4 -25 50 0 43 3 50 19 50 11 0 27 -7 35 -16z"/>
<path d="M100 347 c0 -33 30 -110 57 -146 l29 -40 70 70 69 70 -24 20 c-31 26
-44 24 -93 -11 -43 -31 -38 -35 25 -21 20 5 37 6 37 2 0 -4 -14 -27 -32 -50
l-32 -44 -23 29 c-13 16 -28 47 -34 69 -6 22 -13 46 -15 53 -5 16 -34 16 -34
-1z"/>
<path d="M430 336 c0 -2 8 -10 18 -17 15 -13 16 -12 3 4 -13 16 -21 21 -21 13z"/>
<path d="M338 266 c-15 -11 -43 -114 -34 -123 2 -2 14 14 27 36 12 23 26 41
30 41 7 0 22 -100 16 -107 -9 -9 -85 18 -122 43 -26 17 -41 22 -48 15 -23 -23
57 -75 133 -87 29 -5 44 -13 50 -28 6 -13 9 21 9 95 1 115 1 117 -23 121 -13
3 -30 0 -38 -6z"/>
</g>
</svg>
